<?xml version="1.0" encoding="UTF-8" standalone="no"?>
<!-- Generator: Adobe Illustrator 13.0.2, SVG Export Plug-In  -->

<svg
   xmlns:dc="http://purl.org/dc/elements/1.1/"
   xmlns:cc="http://creativecommons.org/ns#"
   xmlns:rdf="http://www.w3.org/1999/02/22-rdf-syntax-ns#"
   xmlns:svg="http://www.w3.org/2000/svg"
   xmlns="http://www.w3.org/2000/svg"
   xmlns:sodipodi="http://sodipodi.sourceforge.net/DTD/sodipodi-0.dtd"
   xmlns:inkscape="http://www.inkscape.org/namespaces/inkscape"
   version="1.1"
   x="0px"
   y="0px"
   width="158.48634"
   height="71.566185"
   viewBox="-0.982 -0.869 158.48634 71.566185"
   enable-background="new -0.982 -0.869 98 31"
   xml:space="preserve"
   id="svg5185"
   sodipodi:docname="default-img.svg"
   inkscape:version="0.92.2 (5c3e80d, 2017-08-06)"><metadata
     id="metadata5189"><rdf:RDF><cc:Work
         rdf:about=""><dc:format>image/svg+xml</dc:format><dc:type
           rdf:resource="http://purl.org/dc/dcmitype/StillImage" /><dc:title></dc:title></cc:Work></rdf:RDF></metadata><sodipodi:namedview
     pagecolor="#ffffff"
     bordercolor="#666666"
     borderopacity="1"
     objecttolerance="10"
     gridtolerance="10"
     guidetolerance="10"
     inkscape:pageopacity="0"
     inkscape:pageshadow="2"
     inkscape:window-width="1920"
     inkscape:window-height="1017"
     id="namedview5187"
     showgrid="false"
     inkscape:zoom="5.2600086"
     inkscape:cx="68.435785"
     inkscape:cy="26.234964"
     inkscape:window-x="1912"
     inkscape:window-y="-8"
     inkscape:window-maximized="1"
     inkscape:current-layer="svg5185"
     fit-margin-top="0"
     fit-margin-left="0"
     fit-margin-right="0"
     fit-margin-bottom="0" /><defs
     id="defs5175" /><g
     id="g5823"
     transform="matrix(2.0283201,0,0,1.0502178,192.65875,-0.81103655)"
     style="stroke-width:0.6851601"><rect
       y="-0.055191834"
       x="-95.468536"
       height="68.144135"
       width="78.136749"
       id="rect5191"
       style="opacity:1;fill:#f9f9f9;fill-opacity:1;stroke-width:0.6851601" /></g><g
     id="g5820"
     transform="translate(25.72616,-13.108358)"><g
       transform="translate(-51.90106,50.368686)"
       style="fill:#cccccc"
       id="g5214"><g
         style="fill:#cccccc"
         id="g5197"
         transform="translate(56.139581,-34.790817)"><path
           id="path5177"
           d="M 85.164,19.122 H 76.921 L 81.012,5.447 85.164,19.122 M 83.867,0.006 c 2.217,0 2.787,0.554 3.63,3.057 l 9.096,26.915 H 88.49 l -1.976,-6.47 H 75.607 l -1.966,6.47 H 68.965 L 78.138,0.004 Z"
           inkscape:connector-curvature="0"
           style="clip-rule:evenodd;fill:#cccccc;fill-rule:evenodd" /><path
           id="path5179"
           d="m 36.456,13.194 2.502,-3.731 c 0.633,-0.937 0.765,-1.524 0.765,-2.181 0,-1.831 -1.608,-3.369 -3.466,-3.369 h -3.845 v 22.051 h 2.131 c 3.565,0 6.27,-1.925 6.27,-6.434 0,-3.717 -1.744,-5.703 -4.357,-6.336 M 37.953,29.99 H 25.362 V 0 h 13.05 c 6.12,0 8.251,4.987 5.154,9.586 L 42.1,11.76 c 10.267,5.329 6.927,18.23 -4.147,18.23 z"
           inkscape:connector-curvature="0"
           style="clip-rule:evenodd;fill:#cccccc;fill-rule:evenodd" /><path
           id="path5181"
           d="m 11.098,13.194 2.5,-3.731 C 14.23,8.526 14.363,7.939 14.363,7.282 14.363,5.451 12.752,3.913 10.9,3.913 H 7.052 v 22.051 h 2.13 c 3.565,0 6.27,-1.925 6.27,-6.434 0,-3.717 -1.746,-5.703 -4.354,-6.336 M 12.593,29.99 H 0 V 0 h 13.054 c 6.118,0 8.251,4.987 5.152,9.586 L 16.74,11.76 c 10.265,5.329 6.927,18.23 -4.147,18.23 z"
           inkscape:connector-curvature="0"
           style="clip-rule:evenodd;fill:#cccccc;fill-rule:evenodd" /><path
           id="path5183"
           d="m 67.74,0 h 4.734 L 63.337,29.975 56.142,29.971 46.339,0.004 51.638,0 c 2.043,0 2.582,0.527 3.652,3.923 L 60.963,22.769 67.74,0"
           inkscape:connector-curvature="0"
           style="fill:#cccccc" /></g></g><text
       id="text5205"
       y="64.822975"
       x="52.410015"
       style="font-style:normal;font-variant:normal;font-weight:normal;font-stretch:normal;font-size:11.63785744px;line-height:1.25;font-family:'Segoe UI';-inkscape-font-specification:'Segoe UI';text-align:center;letter-spacing:0px;word-spacing:0px;text-anchor:middle;fill:#cccccc;fill-opacity:1;stroke:none;stroke-width:1"
       xml:space="preserve"><tspan
         style="fill:#cccccc;stroke-width:1"
         y="64.822975"
         x="52.410015"
         id="tspan5203"
         sodipodi:role="line">Planificación</tspan><tspan
         style="fill:#cccccc;stroke-width:1"
         id="tspan5207"
         y="79.3703"
         x="52.410015"
         sodipodi:role="line">4Q 2018</tspan></text>
</g></svg>